<?xml version="1.0" encoding="utf-8"?>
<!-- Generator: Adobe Illustrator 16.0.0, SVG Export Plug-In . SVG Version: 6.00 Build 0)  -->
<!DOCTYPE svg PUBLIC "-//W3C//DTD SVG 1.1//EN" "http://www.w3.org/Graphics/SVG/1.1/DTD/svg11.dtd">
<svg version="1.1" id="Layer_1" xmlns="http://www.w3.org/2000/svg" xmlns:xlink="http://www.w3.org/1999/xlink" x="0px" y="0px"
	 width="44px" height="34px" viewBox="0 0 44 34" enable-background="new 0 0 44 34" xml:space="preserve">
<g>
	<g>
		<defs>
			<rect id="SVGID_1_" x="4.46" y="0.75" width="36.54" height="33.25"/>
		</defs>
		<clipPath id="SVGID_2_">
			<use xlink:href="#SVGID_1_"  overflow="visible"/>
		</clipPath>
		<path clip-path="url(#SVGID_2_)" fill="#FFFFFF" d="M39.809,18.373c1.845-1.832,1.278-5.552-1.914-5.552l-8.408,0.007
			c0.321-1.776,0.786-4.73,0.766-5.003c-0.178-2.639-1.859-5.853-1.928-5.982c-0.308-0.574-1.859-1.347-3.418-1.011
			c-2.01,0.431-2.222,1.715-2.208,2.07c0,0,0.082,3.514,0.097,4.45c-0.965,2.112-4.288,7.678-5.292,8.101
			c-0.247-0.144-0.513-0.219-0.8-0.219H6.088c-0.903,0-1.628,0.725-1.628,1.628v14.669c0.062,0.794,0.738,1.409,1.531,1.409h9.537
			c0.842,0,1.531-0.684,1.531-1.531v-0.485c0,0,0.354-0.027,0.512,0.075c0.616,0.39,1.374,0.882,2.359,0.882h14.231
			c5.319,0,4.752-4.724,4.267-5.366c0.896-0.978,1.448-2.707,0.689-4.067C39.706,21.825,40.731,20.13,39.809,18.373L39.809,18.373z
			 M15.2,31.409H5.984V16.767H15.2V31.409z M37.327,18.25l-0.082,0.362c2.447,0.697,1.142,3.521-0.615,3.705l-0.089,0.362
			c2.352,0.595,1.23,3.507-0.608,3.705l-0.089,0.362c1.921,0.314,1.455,3.589-1.449,3.589l-14.479,0.007
			c-1.019,0-1.948-1.169-2.7-1.169H16.56V17.908c0.813-0.513,1.818-1.169,2.378-1.641c1.054-0.901,5.374-7.883,5.374-8.757
			c0-0.875-0.089-4.655-0.089-4.655s0.841-1.094,2.734-0.294c0,0,1.593,2.987,1.757,5.367c0,0-0.718,4.893-1.101,6.431h10.028
			C40.109,14.366,39.637,17.888,37.327,18.25L37.327,18.25z M37.327,18.25"/>
	</g>
</g>
</svg>
